<svg width="182" height="27" viewBox="0 0 182 27" fill="none" xmlns="http://www.w3.org/2000/svg">
<path d="M0.52 26V0.799998H6.388L16.828 17.936H13.732L23.884 0.799998H29.752L29.824 26H23.272L23.2 10.772H24.316L16.72 23.516H13.552L5.74 10.772H7.108V26H0.52ZM47.5757 26.504C45.5597 26.504 43.6997 26.18 41.9957 25.532C40.2917 24.884 38.8037 23.972 37.5317 22.796C36.2837 21.596 35.3117 20.204 34.6157 18.62C33.9197 17.036 33.5717 15.296 33.5717 13.4C33.5717 11.504 33.9197 9.764 34.6157 8.18C35.3117 6.596 36.2837 5.216 37.5317 4.04C38.8037 2.84 40.2917 1.916 41.9957 1.268C43.6997 0.619998 45.5597 0.295998 47.5757 0.295998C49.6157 0.295998 51.4757 0.619998 53.1557 1.268C54.8597 1.916 56.3357 2.84 57.5837 4.04C58.8317 5.216 59.8037 6.596 60.4997 8.18C61.2197 9.764 61.5797 11.504 61.5797 13.4C61.5797 15.296 61.2197 17.048 60.4997 18.656C59.8037 20.24 58.8317 21.62 57.5837 22.796C56.3357 23.972 54.8597 24.884 53.1557 25.532C51.4757 26.18 49.6157 26.504 47.5757 26.504ZM47.5757 20.6C48.5357 20.6 49.4237 20.432 50.2397 20.096C51.0797 19.76 51.7997 19.28 52.3997 18.656C53.0237 18.008 53.5037 17.24 53.8397 16.352C54.1997 15.464 54.3797 14.48 54.3797 13.4C54.3797 12.296 54.1997 11.312 53.8397 10.448C53.5037 9.56 53.0237 8.804 52.3997 8.18C51.7997 7.532 51.0797 7.04 50.2397 6.704C49.4237 6.368 48.5357 6.2 47.5757 6.2C46.6157 6.2 45.7157 6.368 44.8757 6.704C44.0597 7.04 43.3397 7.532 42.7157 8.18C42.1157 8.804 41.6357 9.56 41.2757 10.448C40.9397 11.312 40.7717 12.296 40.7717 13.4C40.7717 14.48 40.9397 15.464 41.2757 16.352C41.6357 17.24 42.1157 18.008 42.7157 18.656C43.3397 19.28 44.0597 19.76 44.8757 20.096C45.7157 20.432 46.6157 20.6 47.5757 20.6ZM65.313 26V0.799998H71.181L85.077 17.576H82.305V0.799998H89.289V26H83.421L69.525 9.224H72.297V26H65.313ZM106.917 26.504C104.925 26.504 103.077 26.192 101.373 25.568C99.6689 24.92 98.1929 24.008 96.9449 22.832C95.7209 21.656 94.7609 20.276 94.0649 18.692C93.3689 17.084 93.0209 15.32 93.0209 13.4C93.0209 11.48 93.3689 9.728 94.0649 8.144C94.7609 6.536 95.7329 5.144 96.9809 3.968C98.2289 2.792 99.7049 1.892 101.409 1.268C103.137 0.619998 105.021 0.295998 107.061 0.295998C109.437 0.295998 111.561 0.691998 113.433 1.484C115.305 2.276 116.853 3.416 118.077 4.904L113.541 9.008C112.677 8.072 111.741 7.376 110.733 6.92C109.749 6.44 108.645 6.2 107.421 6.2C106.341 6.2 105.357 6.368 104.469 6.704C103.581 7.04 102.825 7.532 102.201 8.18C101.577 8.804 101.085 9.56 100.725 10.448C100.389 11.312 100.221 12.296 100.221 13.4C100.221 14.456 100.389 15.428 100.725 16.316C101.085 17.204 101.577 17.972 102.201 18.62C102.825 19.244 103.569 19.736 104.433 20.096C105.321 20.432 106.293 20.6 107.349 20.6C108.405 20.6 109.437 20.432 110.445 20.096C111.453 19.736 112.473 19.136 113.505 18.296L117.501 23.3C116.061 24.332 114.393 25.124 112.497 25.676C110.601 26.228 108.741 26.504 106.917 26.504ZM111.201 22.364V12.86H117.501V23.3L111.201 22.364Z" fill="white"/>
<path d="M129.76 26L118.996 0.799998H126.7L135.772 22.616H131.236L140.524 0.799998H147.58L136.78 26H129.76ZM149.055 26V0.799998H156.183V26H149.055ZM167.806 10.556H179.506V15.884H167.806V10.556ZM168.31 20.492H181.486V26H161.254V0.799998H181.018V6.308H168.31V20.492Z" fill="#DAAA54"/>
</svg>
