<svg width="229" height="30" viewBox="0 0 229 30" fill="none" xmlns="http://www.w3.org/2000/svg">
<path d="M0.8 29V0.999998H7.32L18.92 20.04H15.48L26.76 0.999998H33.28L33.36 29H26.08L26 12.08H27.24L18.8 26.24H15.28L6.6 12.08H8.12V29H0.8ZM53.0841 29.56C50.8441 29.56 48.7774 29.2 46.8841 28.48C44.9907 27.76 43.3374 26.7467 41.9241 25.44C40.5374 24.1067 39.4574 22.56 38.6841 20.8C37.9107 19.04 37.5241 17.1067 37.5241 15C37.5241 12.8933 37.9107 10.96 38.6841 9.2C39.4574 7.44 40.5374 5.90667 41.9241 4.6C43.3374 3.26667 44.9907 2.24 46.8841 1.52C48.7774 0.799998 50.8441 0.439998 53.0841 0.439998C55.3507 0.439998 57.4174 0.799998 59.2841 1.52C61.1774 2.24 62.8174 3.26667 64.2041 4.6C65.5907 5.90667 66.6707 7.44 67.4441 9.2C68.2441 10.96 68.6441 12.8933 68.6441 15C68.6441 17.1067 68.2441 19.0533 67.4441 20.84C66.6707 22.6 65.5907 24.1333 64.2041 25.44C62.8174 26.7467 61.1774 27.76 59.2841 28.48C57.4174 29.2 55.3507 29.56 53.0841 29.56ZM53.0841 23C54.1507 23 55.1374 22.8133 56.0441 22.44C56.9774 22.0667 57.7774 21.5333 58.4441 20.84C59.1374 20.12 59.6707 19.2667 60.0441 18.28C60.4441 17.2933 60.6441 16.2 60.6441 15C60.6441 13.7733 60.4441 12.68 60.0441 11.72C59.6707 10.7333 59.1374 9.89333 58.4441 9.2C57.7774 8.48 56.9774 7.93333 56.0441 7.56C55.1374 7.18667 54.1507 7 53.0841 7C52.0174 7 51.0174 7.18667 50.0841 7.56C49.1774 7.93333 48.3774 8.48 47.6841 9.2C47.0174 9.89333 46.4841 10.7333 46.0841 11.72C45.7107 12.68 45.5241 13.7733 45.5241 15C45.5241 16.2 45.7107 17.2933 46.0841 18.28C46.4841 19.2667 47.0174 20.12 47.6841 20.84C48.3774 21.5333 49.1774 22.0667 50.0841 22.44C51.0174 22.8133 52.0174 23 53.0841 23ZM72.7922 29V0.999998H79.3122L94.7522 19.64H91.6722V0.999998H99.4322V29H92.9122L77.4722 10.36H80.5522V29H72.7922ZM119.019 29.56C116.805 29.56 114.752 29.2133 112.859 28.52C110.965 27.8 109.325 26.7867 107.939 25.48C106.579 24.1733 105.512 22.64 104.739 20.88C103.965 19.0933 103.579 17.1333 103.579 15C103.579 12.8667 103.965 10.92 104.739 9.16C105.512 7.37333 106.592 5.82667 107.979 4.52C109.365 3.21333 111.005 2.21333 112.899 1.52C114.819 0.799998 116.912 0.439998 119.179 0.439998C121.819 0.439998 124.179 0.879998 126.259 1.76C128.339 2.64 130.059 3.90667 131.419 5.56L126.379 10.12C125.419 9.08 124.379 8.30667 123.259 7.8C122.165 7.26667 120.939 7 119.579 7C118.379 7 117.285 7.18667 116.299 7.56C115.312 7.93333 114.472 8.48 113.779 9.2C113.085 9.89333 112.539 10.7333 112.139 11.72C111.765 12.68 111.579 13.7733 111.579 15C111.579 16.1733 111.765 17.2533 112.139 18.24C112.539 19.2267 113.085 20.08 113.779 20.8C114.472 21.4933 115.299 22.04 116.259 22.44C117.245 22.8133 118.325 23 119.499 23C120.672 23 121.819 22.8133 122.939 22.44C124.059 22.04 125.192 21.3733 126.339 20.44L130.779 26C129.179 27.1467 127.325 28.0267 125.219 28.64C123.112 29.2533 121.045 29.56 119.019 29.56ZM123.779 24.96V14.4H130.779V26L123.779 24.96Z" fill="#001939"/>
<path d="M144.4 29L132.44 0.999998H141L151.08 25.24H146.04L156.36 0.999998H164.2L152.2 29H144.4ZM165.839 29V0.999998H173.759V29H165.839ZM186.674 11.84H199.674V17.76H186.674V11.84ZM187.234 22.88H201.874V29H179.394V0.999998H201.354V7.12H187.234V22.88ZM216.109 29.56C213.815 29.56 211.602 29.28 209.469 28.72C207.362 28.1333 205.642 27.3867 204.309 26.48L206.909 20.64C208.162 21.44 209.602 22.1067 211.229 22.64C212.882 23.1467 214.522 23.4 216.149 23.4C217.242 23.4 218.122 23.3067 218.789 23.12C219.455 22.9067 219.935 22.64 220.229 22.32C220.549 21.9733 220.709 21.5733 220.709 21.12C220.709 20.48 220.415 19.9733 219.829 19.6C219.242 19.2267 218.482 18.92 217.549 18.68C216.615 18.44 215.575 18.2 214.429 17.96C213.309 17.72 212.175 17.4133 211.029 17.04C209.909 16.6667 208.882 16.1867 207.949 15.6C207.015 14.9867 206.255 14.2 205.669 13.24C205.082 12.2533 204.789 11.0133 204.789 9.52C204.789 7.84 205.242 6.32 206.149 4.96C207.082 3.6 208.469 2.50667 210.309 1.68C212.149 0.853332 214.442 0.439998 217.189 0.439998C219.029 0.439998 220.829 0.653332 222.589 1.08C224.375 1.48 225.962 2.08 227.349 2.88L224.909 8.76C223.575 8.04 222.255 7.50667 220.949 7.16C219.642 6.78667 218.375 6.6 217.149 6.6C216.055 6.6 215.175 6.72 214.509 6.96C213.842 7.17333 213.362 7.46666 213.069 7.84C212.775 8.21333 212.629 8.64 212.629 9.12C212.629 9.73333 212.909 10.2267 213.469 10.6C214.055 10.9467 214.815 11.24 215.749 11.48C216.709 11.6933 217.749 11.92 218.869 12.16C220.015 12.4 221.149 12.7067 222.269 13.08C223.415 13.4267 224.455 13.9067 225.389 14.52C226.322 15.1067 227.069 15.8933 227.629 16.88C228.215 17.84 228.509 19.0533 228.509 20.52C228.509 22.1467 228.042 23.6533 227.109 25.04C226.202 26.4 224.829 27.4933 222.989 28.32C221.175 29.1467 218.882 29.56 216.109 29.56Z" fill="#DAAA54"/>
</svg>
